<mxfile host="app.diagrams.net" modified="2023-11-05T19:52:24.824Z" agent="Mozilla/5.0 (Windows NT 10.0; Win64; x64) AppleWebKit/537.36 (KHTML, like Gecko) Chrome/119.0.0.0 Safari/537.36" version="22.0.8" etag="oVxxqUzR9OU9ZuYk37Rr" type="github">
  <diagram name="Page-1" id="Vd8DK0be66lqfwdAYKap">
    <mxGraphModel>
      <root>
        <mxCell id="0" />
        <mxCell id="1" parent="0" />
      </root>
    </mxGraphModel>
  </diagram>
</mxfile>
